<svg id="Group_245" data-name="Group 245" xmlns="http://www.w3.org/2000/svg" width="151.54" height="49.76" viewBox="0 0 151.54 49.76">
  <g id="logo_header_dark-blue" transform="translate(0 0)">
    <path id="Path_158" data-name="Path 158" d="M29.452,42.666A8.026,8.026,0,0,0,34.03,35.06a8.844,8.844,0,0,0-3.407-6.642,12.828,12.828,0,0,0-8.178-2.785,12.645,12.645,0,0,0-8.489,3.139,7.62,7.62,0,0,1,3.816-.068c3.329.816,5.448,3.193,4.892,5.446s-3.7,3.486-6.9,2.668q-.272-.07-.535-.155c2.9,5.789,9.234,8.482,14.226,6M27.72,44.84a14.525,14.525,0,0,0,2.387-1.678c-.11.06-.22.118-.333.175a9.567,9.567,0,0,1-4.277,1c-4.352,0-8.773-2.838-11.039-7.562-.079-.165-.156-.333-.229-.5-2.358-1.107-3.82-3.167-3.062-5.2A8.085,8.085,0,0,0,8.449,38a9.692,9.692,0,0,0,4.1,5.974,14.687,14.687,0,0,0,8.621,2.535A13.477,13.477,0,0,0,27.72,44.84m-20-6.751c-1.894-.422-3.4-2.7-3.634-5.517a7.746,7.746,0,0,1,.63-3.87C1.329,31.84-.622,35.927.179,40.1c1.394,7.251,10.068,11.128,19.414,9.2a22.113,22.113,0,0,0,9.755-4.616,14.078,14.078,0,0,1-8.165,2.578h-.222a15.369,15.369,0,0,1-8.827-2.67,10.413,10.413,0,0,1-4.416-6.5M21.851,14.745a7.248,7.248,0,0,1,.693-3.726l.29.409a3.09,3.09,0,0,0,.28,1.513,3.189,3.189,0,0,0,1.765,1.6,2.271,2.271,0,0,1,1.091.891,2.038,2.038,0,0,1,.292,1.358,3.025,3.025,0,0,0-.01,1.144,1.582,1.582,0,0,0,1.25.8,4.066,4.066,0,0,0,.347-1.057,3.72,3.72,0,0,0-.173-1.752,3.7,3.7,0,0,1,1.21,3.15,2.493,2.493,0,0,0,2.176-1.179,3.25,3.25,0,0,0,.425-1.863A40.685,40.685,0,0,0,28.756,4.8a10.259,10.259,0,0,1,1.126.227.443.443,0,0,0,.112.015.45.45,0,0,0,.434-.343.457.457,0,0,0-.323-.555,11.088,11.088,0,0,0-1.758-.311A30.44,30.44,0,0,0,26.392.123a13.973,13.973,0,0,0-10.2,2.65q-.628.443-1.2.934a13.192,13.192,0,0,1,1.631,1.735.378.378,0,0,1-.059.524.363.363,0,0,1-.516-.06,12.477,12.477,0,0,0-1.616-1.7,22.217,22.217,0,0,0-3.359,4,15.869,15.869,0,0,0-1.309,2.333,12.382,12.382,0,0,1,2.336.9.376.376,0,0,1,.165.5.367.367,0,0,1-.329.207.36.36,0,0,1-.163-.039,11.662,11.662,0,0,0-2.3-.871,14.221,14.221,0,0,0-.658,9.046,15.423,15.423,0,0,1,1.72-1.244.364.364,0,0,1,.5.124.377.377,0,0,1-.122.513,14.653,14.653,0,0,0-1.743,1.273l0,0a11.986,11.986,0,0,1,4.577,7.024,12.623,12.623,0,0,1,3.119-1.936,14.345,14.345,0,0,1-1.892-11.941c0-.013.009-.025.014-.037s.013-.051.02-.077a13.85,13.85,0,0,1,3.034-5.547,12.686,12.686,0,0,1,2.381-2.056,11.026,11.026,0,0,1,2.8-1.341,14.009,14.009,0,0,0-4.744,3.782,14.891,14.891,0,0,0-2.764,5.367q-.144.511-.252,1.032c-.012.058-.024.117-.035.175l-.013.068a13.431,13.431,0,0,0,2.156,10.29,14.033,14.033,0,0,1,4.875-.863,13.556,13.556,0,0,1,8.64,2.952,9.582,9.582,0,0,1,3.679,7.206,9.873,9.873,0,0,1-.153,1.969c.033-.128.047-.2.047-.2a10.816,10.816,0,0,0-.682-7.229c-1.743-4.091-5.292-7.2-8.843-9.347a8.156,8.156,0,0,1-3.282-5.494" transform="translate(0 -0.029)" fill="#0c2169" fill-rule="evenodd"/>
    <path id="Path_159" data-name="Path 159" d="M102,28.429v9.648h2.076V31.834l7.87,6.243h1.035V28.418h-2.074v6.194L103.1,28.429Z" transform="translate(-27.328 -7.635)" fill="#0c2169" fill-rule="evenodd"/>
    <path id="Path_160" data-name="Path 160" d="M179.184,31.161l1.953,3.534h-3.9Zm3.8,6.916h2.458l-5.628-9.659h-1.191L173,38.077h2.38l1.151-2.07,5.335,0Z" transform="translate(-46.351 -7.635)" fill="#0c2169" fill-rule="evenodd"/>
    <path id="Path_161" data-name="Path 161" d="M148.249,28.418H138v1.295h3.963v8.364h2.318V29.713h3.968Z" transform="translate(-36.973 -7.635)" fill="#0c2169" fill-rule="evenodd"/>
    <path id="Path_162" data-name="Path 162" d="M92.086,29.714v-1.3H83v9.659h9.517V36.766H85.19V33.75h5.7v-1.3h-5.7V29.714Z" transform="translate(-22.238 -7.635)" fill="#0c2169" fill-rule="evenodd"/>
    <path id="Path_163" data-name="Path 163" d="M66.229,36.8V33.666H70.6c1.513.024,2.143.745,2.151,1.666.01,1.107-.981,1.505-2.215,1.472Zm0-4.407V29.7h3.655c1.658-.018,2.13.666,2.13,1.388,0,.378-.024,1.3-2.233,1.311Zm6.176.532a2.168,2.168,0,0,0,1.828-2.065c0-1.588-1.563-2.444-4.064-2.444l-6.169,0v9.659h6.535c2.493,0,4.446-.856,4.446-2.778A2.6,2.6,0,0,0,72.4,32.93Z" transform="translate(-17.147 -7.635)" fill="#0c2169" fill-rule="evenodd"/>
    <path id="Path_164" data-name="Path 164" d="M197.49,38.077c3.058,0,5.491-1.461,5.491-4.776V28.418h-2.26v4.809c0,1.942-1.048,3.565-3.231,3.565s-3.23-1.623-3.23-3.565V28.418H192V33.3c0,3.315,2.649,4.776,5.49,4.776" transform="translate(-51.441 -7.635)" fill="#0c2169" fill-rule="evenodd"/>
    <path id="Path_165" data-name="Path 165" d="M131.085,29.716v-1.3H122v9.659h9.517V36.763H124.19v-3h5.7V32.455h-5.7V29.716Z" transform="translate(-32.687 -7.635)" fill="#0c2169" fill-rule="evenodd"/>
    <path id="Path_166" data-name="Path 166" d="M165.086,29.716v-1.3H156v9.659h9.517V36.763H158.19v-3h5.7V32.455h-5.7V29.716Z" transform="translate(-41.796 -7.635)" fill="#0c2169" fill-rule="evenodd"/>
  </g>
  <g id="Group_241" data-name="Group 241" transform="translate(78.242 34.396)">
    <path id="Path_209" data-name="Path 209" d="M27.945,16.35a6.568,6.568,0,0,1-6.58-6.376A6.589,6.589,0,0,1,34.54,9.906,6.565,6.565,0,0,1,27.945,16.35ZM27.928,4.589a5.4,5.4,0,0,0-5.317,5.385A5.343,5.343,0,0,0,33.3,9.923,5.375,5.375,0,0,0,27.928,4.589Z" transform="translate(-21.365 -3.461)" fill="#0c2169"/>
    <path id="Path_210" data-name="Path 210" d="M44.042,12.863a6.587,6.587,0,0,1-5.737,3.482,6.435,6.435,0,1,1,5.686-9.473H42.6A5.265,5.265,0,0,0,38.272,4.6a5.406,5.406,0,0,0-5.233,5.334,5.235,5.235,0,0,0,9.608,2.928Z" transform="translate(-17.163 -3.456)" fill="#0c2169"/>
    <path id="Path_211" data-name="Path 211" d="M41.873,16.069V3.618h6.814V4.745h-5.57V9.22H48.5v1.128H43.117v4.593h5.57v1.128Z" transform="translate(-13.101 -3.398)" fill="#0c2169"/>
    <path id="Path_212" data-name="Path 212" d="M58.311,16.069l-1.8-4.191H50.722l-1.817,4.191h-1.3L52.926,3.618h1.4l5.35,12.451ZM53.633,5.031l-2.44,5.721h4.829Z" transform="translate(-10.79 -3.398)" fill="#0c2169"/>
    <path id="Path_213" data-name="Path 213" d="M65.91,16.069,58.523,5.115h-.034V16.069H57.245V3.618h1.682l6.949,10.33h.034V3.618h1.246V16.069Z" transform="translate(-6.907 -3.398)" fill="#0c2169"/>
    <path id="Path_214" data-name="Path 214" d="M66.137,16.069V3.618h1.244V16.069Z" transform="translate(-3.323 -3.398)" fill="#0c2169"/>
    <path id="Path_215" data-name="Path 215" d="M74.241,6.844a2.244,2.244,0,0,0-2.2-2.255,2.186,2.186,0,0,0-2.256,2.172c0,1.059.64,1.716,2.406,2.169,2.692.69,3.6,2.088,3.6,3.77a3.681,3.681,0,0,1-3.752,3.651,3.632,3.632,0,0,1-3.837-3.7h1.244a2.55,2.55,0,0,0,5.1.1c0-1.345-.891-2.1-2.524-2.574-1.783-.505-3.482-1.094-3.482-3.366a3.476,3.476,0,0,1,6.949.034Z" transform="translate(-2.492 -3.461)" fill="#0c2169"/>
  </g>
</svg>
