<svg id="Group_246" data-name="Group 246" xmlns="http://www.w3.org/2000/svg" width="158.879" height="35.6" viewBox="0 0 158.879 35.6">
  <path id="Path_216" data-name="Path 216" d="M278,288.615c0-2.565,1.637-3.818,4.341-3.818,2.972,0,9.2.027,9.383.051v2.6c-.3.016-5.93.04-8.44.05-1.837.007-2.51.686-2.512,2.5q0,5.78,0,11.562V302.6H278Z" transform="translate(-278 -282.36)" fill="#0c2169"/>
  <path id="Path_217" data-name="Path 217" d="M344.7,284.826v2.749h-3.218c-2.771,0-5.543,0-8.314,0-1.495,0-2.2.766-2.2,2.358,0,1.564.716,2.326,2.223,2.329,2.714.007,5.427-.02,8.14.009a4.827,4.827,0,0,1,4.778,4.062c.427,3.083-.878,5.408-3.461,6.143a3.486,3.486,0,0,1-.935.142q-5.845.014-11.691,0a3.676,3.676,0,0,1-.453-.06v-2.728h.912q5.283,0,10.565,0c1.533,0,2.217-.721,2.22-2.311,0-1.682-.638-2.373-2.23-2.376-2.685-.006-5.369.012-8.054-.007a4.8,4.8,0,0,1-4.811-4.121c-.458-2.856.83-5.247,3.271-6.032a4,4,0,0,1,1.186-.2c3.869-.014,7.736-.009,11.6-.007C344.368,284.786,344.506,284.809,344.7,284.826Z" transform="translate(-291.893 -282.356)" fill="#0c2169"/>
  <path id="Path_218" data-name="Path 218" d="M305.482,287.574v-2.792h.891q4.808,0,9.615,0a4.667,4.667,0,0,1,4.817,4.342c.269,2.565-.491,4.6-3,5.755l2.347,7.681h-2.958l-2.329-7.355h-6.7v7.369h-2.79V292.323h1.049c3.09,0,6.179-.008,9.268,0a1.979,1.979,0,0,0,2.113-1.179,2.567,2.567,0,0,0-.263-2.77,2.824,2.824,0,0,0-1.8-.768c-3.088-.077-6.178-.035-9.268-.035Z" transform="translate(-285.595 -282.356)" fill="#0c2169"/>
  <path id="Path_219" data-name="Path 219" d="M353.178,284.838h14.956v2.676h-6.041v15.08h-2.767v-15h-6.148Z" transform="translate(-298.858 -282.372)" fill="#0c2169"/>
  <path id="Path_220" data-name="Path 220" d="M411.445,294.557c-1.74,1.561-3.368,3.2-5.179,4.61a12.662,12.662,0,0,1-10.384,2.71c-4.064-.746-6.432-3.386-6.924-7.52A24.1,24.1,0,0,1,390.227,284c.163-.5.689-.89,1.046-1.331l.314.176c-.085.306-.158.616-.257.917a25.209,25.209,0,0,0-1.523,8.789c.115,3.234,1.155,6.005,4.209,7.595a8.938,8.938,0,0,0,7.3.4,17.459,17.459,0,0,0,6.471-4.053c1.381-1.34,2.612-2.833,3.939-4.23a.926.926,0,0,1,.853-.4c.468.09.389.644.347.932a50.836,50.836,0,0,1-3.436,11.536c-1.621,4.054-3.375,8.055-5.076,12.077-.224.53-.473,1.052-1.343.951C405.934,309.736,409.585,302.469,411.445,294.557Z" transform="translate(-308.747 -281.769)" fill="#0c2169"/>
  <path id="Path_221" data-name="Path 221" d="M444.317,293.823c-.4-.115-.8-.216-1.2-.348a8.87,8.87,0,0,0-5.163-.578,2.749,2.749,0,0,0-1.568,1.009c-.4.67.056,1.384.564,1.934a7.178,7.178,0,0,0,4.311,1.988,14.33,14.33,0,0,0,6.5-.47.834.834,0,0,0,.673-.83c.651-4.7,1.34-9.387,2.013-14.08.1-.691.4-1.116,1.384-1.007-.82,5.117-1.634,10.2-2.48,15.474.358-.25.548-.405.758-.526a43.57,43.57,0,0,1,4.728-2.647,7.453,7.453,0,0,1,8.832,2.2c.378.434.748.878,1.085,1.343.12.164.242.473.166.594a.8.8,0,0,1-.6.214,1.7,1.7,0,0,1-1.043-.507,10.485,10.485,0,0,1-.7-.874c-1.793-2.354-4.271-3.249-7.028-2.1a51.453,51.453,0,0,0-5.84,3.3c-.32.186-.611.421-.915.634l-.054-.264a5.569,5.569,0,0,0-1.383.079,12.257,12.257,0,0,1-8.629-.152,6.349,6.349,0,0,1-3.171-2.565c-.989-1.657-.488-2.981,1.355-3.543a8.884,8.884,0,0,1,7.158.951c.184.1.505.363.4.577Z" transform="translate(-321.578 -281.424)" fill="#0c2169"/>
  <path id="Path_222" data-name="Path 222" d="M299.056,284.838h2.78v17.743h-2.78Z" transform="translate(-283.842 -282.372)" fill="#0c2169"/>
  <path id="Path_223" data-name="Path 223" d="M485.692,295.3a2.841,2.841,0,0,1-.329.617,21.612,21.612,0,0,1-5.7,4.7,9.665,9.665,0,0,1-2.427.858A1.885,1.885,0,0,1,475.01,300a9.114,9.114,0,0,1,.268-3.814c.283-1.426.811-2.8,1.254-4.273a37.728,37.728,0,0,1-8.632-.027c-.213-.027-.254-.252-.015-.28.255-.029.51-.072.767-.085,2.389-.118,4.777-.24,7.166-.34.71-.029,1.134-.238,1.294-1.035.14-.7.262-1.6,1.595-1.618-.243.8-.456,1.5-.706,2.325,3.815-.47,7.574-1.236,11.4-1,.106.007.16.184.077.3s-.414.165-.621.189c-3.464.408-6.93.8-10.392,1.22-.283.035-.711.25-.777.47A63.475,63.475,0,0,0,476,298.166c-.356,1.842.67,2.614,2.383,1.819a29.518,29.518,0,0,0,3.963-2.421c.882-.593,1.678-1.313,2.516-1.97.207-.163.431-.3.647-.452Z" transform="translate(-330.637 -283.396)" fill="#0c2169"/>
  <path id="Path_224" data-name="Path 224" d="M428.189,300.329a42.623,42.623,0,0,1-4.343.848c-1.376.134-1.787-.582-1.253-1.826a6.952,6.952,0,0,1,6.262-4,4.964,4.964,0,0,1,1.906.819.56.56,0,0,1,.129.708.642.642,0,0,1-.815.188,4.991,4.991,0,0,0-6.244,2.114c-.155.25-.334.728-.225.846a1.244,1.244,0,0,0,.916.3,6.12,6.12,0,0,0,3.483-1.346c.264-.219.536-.65.951-.465.118.3.241.6.348.9a.635.635,0,0,1,.044.338c-.1.405-.221.806-.334,1.207C428.827,300.367,428.466,300.3,428.189,300.329Z" transform="translate(-318.054 -285.286)" fill="#0c2169"/>
  <path id="Path_225" data-name="Path 225" d="M283.857,297.084V294.1h4.9v2.981Z" transform="translate(-279.625 -284.942)" fill="#0c2169"/>
</svg>
