<svg id="Group_250" data-name="Group 250" xmlns="http://www.w3.org/2000/svg" width="102.435" height="33.382" viewBox="0 0 102.435 33.382">
  <path id="Path_184" data-name="Path 184" d="M819.846,353.641c1.531-1.14.792-2.132.792-2.132-.792-.985-2.03.114-2.03.114-2.233,2.013-2.57,3.077-2.57,3.077a4.81,4.81,0,0,0,3.807-1.059m-27.935-3.619c.371-.3,1.856.3,1.856.3,4.678-3.118,5.549-5.2,5.549-5.2,1.393-1.726.09-2.377.09-2.377-.961-.518-2.449.966-2.449.966-5.568,5.643-5.047,6.31-5.047,6.31m-2.747,4.678a2.152,2.152,0,0,0,.072,2.376,1.956,1.956,0,0,0,2.675.073s.371-.372-.072-.519a4.686,4.686,0,0,1-2.157-2s-.371-.373-.518.074m-14.772,1.188c2.374,1.206,3.786-1.45,3.786-1.45.341-.85-.076-1-.076-1a5.21,5.21,0,0,1-1.336-2.374c-.2-.567-1,.019-1,.019-3.933,3.249-1.374,4.807-1.374,4.807m35.223-.908a35.971,35.971,0,0,1,2.783-2.729c4.176-2.9,6.978-2.675,6.978-2.675,5.794.3,3.861,4.012,3.861,4.012-2.3,4.23-8.313,2.894-8.313,2.894-1.114,2.449,2.971,2.821,2.971,2.821,3.786.223,6.382-3.563,6.382-3.563a.346.346,0,0,1,.445-.223c.517.162.15.818.15.818l-2.254,4.426H810.133a2.974,2.974,0,0,1-2.191-2.647c-.165-.576-.591-.075-.591-.075-5.121,4.156-7.347,2.9-7.347,2.9-2.9-.443-1.116-4.008-1.116-4.008.223-.815-.3-.516-.3-.516-3.007.739-4.006.221-4.006.221-5.29,6.032-9.137,4.455-9.137,4.455-3.705-.966-2.449-4.751-2.449-4.751.375-.594-.219-.742-.219-.742a3.654,3.654,0,0,1-2.675-.819c-.445-.3-.964.224-.964.224-4.77,7.052-8.538,5.864-8.538,5.864-3.916-.926-2.6-5.233-2.6-5.233a7.9,7.9,0,0,1,8.54-5.383c.443-3.507,2.449-2.374,2.449-2.374a3.291,3.291,0,0,1,1.335,4.38c-.557,1.279,1.262,1.855,1.262,1.855a2.618,2.618,0,0,0,2.6-.148,43.733,43.733,0,0,1,7.869-8.536c7.427-5.643,10.173-4.753,10.173-4.753,1.408.668.442,2.376.442,2.376-1.037,3.191-7.812,7.979-7.812,7.979,1.484,1.263.912,3.824.912,3.824-.077.593.516.521.516.521a7.933,7.933,0,0,0,7.055-4.233h4.675l-2.964,5.123c-.6,1.559,1.4.667,1.4.667a10.434,10.434,0,0,0,3.156-1.946" transform="translate(-722.563 -335.305)" fill="#0c2169"/>
  <path id="Path_185" data-name="Path 185" d="M847.773,350.581a2.379,2.379,0,1,0-2.377-2.38,2.379,2.379,0,0,0,2.377,2.38" transform="translate(-760.976 -337.88)" fill="#0c2169"/>
  <path id="Path_186" data-name="Path 186" d="M697.573,334.931c-1.5-1.169-1.127-1.99-.316-2.089,2.784-.333,15.217-2.746,15.217-2.746s-1.206,2.079,1.782,3.341c2.707,1.143,8.9-.232,8.9-.232a19.928,19.928,0,0,0-4.018,3.628c-.627.738-6.885,8.035-6.885,8.035l1.911,1.949s.372.5.965-.037c4.639-4.231,6.953-6.211,8.982-7.832,2.83-2.259,10.875-7.255,15.608-7.59.849-.06.371.966.371.966s-15.812,7.942-20.117,17.295c-2.005,4.359-1.018,7.662,2.582,7.7h55.224l-2.326,5.284H714.04c-2.825,0-8.229-.493-4.331-9.067.329-.726.334-.762-1-2.376-1.23-1.487-1.336-.853-1.336-.853s-1.122.741-6.866,6.42a30.506,30.506,0,0,1-9.651,5.938c-7.311,1.967-11.248-.165-12.4-.853-.557-.334.074-1.3.074-1.3,1.568-1.577,10.615-11.246,10.615-11.246l1.225,1.04s-2.029,1.788.575,2.857c3.117,1.28,7.339.445,14.224-5.344,0,0-4.315-5.15-13.928-4.881-.073-.909,8.537-5.64,18.633.521,0,0,9.272-8.147,6.764-7.526-4.268,1.057-14.113,3.423-19.068-1" transform="translate(-678.229 -330.096)" fill="#0c2169"/>
  <path id="Path_187" data-name="Path 187" d="M875.715,390.021h-.267v.5h.267a.251.251,0,0,0,.271-.249.254.254,0,0,0-.271-.252m.278,1.255-.329-.584h-.217v.584h-.2v-1.432h.487a.438.438,0,0,1,.451.429.4.4,0,0,1-.307.393l.342.61Zm-.318-1.829a1.115,1.115,0,1,0,1.1,1.115,1.107,1.107,0,0,0-1.1-1.115m0,2.421a1.306,1.306,0,1,1,1.306-1.306,1.306,1.306,0,0,1-1.306,1.306" transform="translate(-775.317 -359.38)" fill="#0c2169"/>
</svg>
