<svg xmlns="http://www.w3.org/2000/svg" width="224.817" height="15.861" viewBox="0 0 224.817 15.861">
  <g id="Group_265" data-name="Group 265" transform="translate(-53.248 -283.926)">
    <path id="Path_232" data-name="Path 232" d="M57.153,284.85v11.716h4.682v3.308H53.248V284.85Z" transform="translate(0 -0.506)" fill="#0c2169"/>
    <path id="Path_233" data-name="Path 233" d="M85.491,297.264H79.912l-.9,2.61H74.851L80.57,284.85h4.264l5.719,15.024H86.388Zm-1.036-2.969-1.753-5-1.753,5Z" transform="translate(-11.82 -0.506)" fill="#0c2169"/>
    <path id="Path_234" data-name="Path 234" d="M120.737,288.19a4.84,4.84,0,0,0-1.275-.767,3.386,3.386,0,0,0-1.235-.249,2.006,2.006,0,0,0-1.236.359,1.117,1.117,0,0,0-.478.936.932.932,0,0,0,.24.658,2.077,2.077,0,0,0,.627.448,5.374,5.374,0,0,0,.877.329q.488.14.967.3a6.025,6.025,0,0,1,2.8,1.7,4.2,4.2,0,0,1,.887,2.78,5.4,5.4,0,0,1-.389,2.092,4.359,4.359,0,0,1-1.135,1.6,5.243,5.243,0,0,1-1.833,1.036,7.642,7.642,0,0,1-2.461.369,9.046,9.046,0,0,1-5.28-1.694l1.673-3.148a6.791,6.791,0,0,0,1.734,1.156,4.163,4.163,0,0,0,1.694.379,2.024,2.024,0,0,0,1.425-.438,1.36,1.36,0,0,0,.349-1.584,1.277,1.277,0,0,0-.4-.458,3.188,3.188,0,0,0-.727-.389q-.448-.179-1.086-.4-.757-.239-1.484-.528a4.659,4.659,0,0,1-1.3-.767,3.563,3.563,0,0,1-.917-1.205,4.266,4.266,0,0,1-.348-1.843,5.313,5.313,0,0,1,.369-2.022,4.492,4.492,0,0,1,1.036-1.554,4.618,4.618,0,0,1,1.634-1.006,6.173,6.173,0,0,1,2.162-.359,9.459,9.459,0,0,1,2.331.309,10.3,10.3,0,0,1,2.331.907Z" transform="translate(-32.043)" fill="#0c2169"/>
    <path id="Path_235" data-name="Path 235" d="M150.278,288.158h-4.643v2.511h4.384v3.308h-4.384v2.59h4.643v3.308H141.73V284.85h8.548Z" transform="translate(-48.413 -0.506)" fill="#0c2169"/>
    <path id="Path_236" data-name="Path 236" d="M179.3,299.874h-4.862l-3.726-5.778v5.778H166.81V284.85h6.077a5.972,5.972,0,0,1,2.192.369,4.127,4.127,0,0,1,2.461,2.481,5.146,5.146,0,0,1,.309,1.793,4.408,4.408,0,0,1-.827,2.78,4.161,4.161,0,0,1-2.441,1.445Zm-8.588-8.309h.737a2.848,2.848,0,0,0,1.773-.478,1.839,1.839,0,0,0,0-2.75,2.848,2.848,0,0,0-1.773-.478h-.737Z" transform="translate(-62.135 -0.506)" fill="#0c2169"/>
    <path id="Path_237" data-name="Path 237" d="M201.911,299.874h-3.905V284.85h6.217a5.319,5.319,0,0,1,3.876,1.315,5.779,5.779,0,0,1,0,7.412,5.319,5.319,0,0,1-3.876,1.315h-2.311Zm0-8.13h1.3q2.152,0,2.152-1.873T203.207,288h-1.3Z" transform="translate(-79.204 -0.506)" fill="#0c2169"/>
    <path id="Path_238" data-name="Path 238" d="M236.385,288.158h-4.643v2.511h4.384v3.308h-4.384v2.59h4.643v3.308h-8.548V284.85h8.548Z" transform="translate(-95.526 -0.506)" fill="#0c2169"/>
    <path id="Path_239" data-name="Path 239" d="M265.41,299.874h-4.861l-3.726-5.778v5.778h-3.906V284.85h6.077a5.97,5.97,0,0,1,2.192.369,4.127,4.127,0,0,1,2.461,2.481,5.135,5.135,0,0,1,.309,1.793,4.408,4.408,0,0,1-.827,2.78,4.16,4.16,0,0,1-2.44,1.445Zm-8.587-8.309h.737a2.847,2.847,0,0,0,1.773-.478,1.839,1.839,0,0,0,0-2.75,2.848,2.848,0,0,0-1.773-.478h-.737Z" transform="translate(-109.248 -0.506)" fill="#0c2169"/>
    <path id="Path_240" data-name="Path 240" d="M292.721,288.158h-4.7v2.511H292.3v3.308h-4.284v5.9h-3.905V284.85h8.608Z" transform="translate(-126.317 -0.506)" fill="#0c2169"/>
    <path id="Path_241" data-name="Path 241" d="M306.729,291.856a7.742,7.742,0,0,1,4.952-7.323,9.55,9.55,0,0,1,6.7,0,7.919,7.919,0,0,1,2.64,1.684,7.709,7.709,0,0,1,1.724,2.521,8.18,8.18,0,0,1,0,6.237,7.709,7.709,0,0,1-1.724,2.521,7.919,7.919,0,0,1-2.64,1.684,9.551,9.551,0,0,1-6.7,0,7.771,7.771,0,0,1-4.952-7.323Zm4.085,0a4,4,0,0,0,.339,1.654,4.137,4.137,0,0,0,2.262,2.182,4.346,4.346,0,0,0,4.6-.867,4.106,4.106,0,0,0,.927-1.315,4.206,4.206,0,0,0,0-3.308,4.111,4.111,0,0,0-.927-1.315,4.269,4.269,0,0,0-1.355-.867,4.423,4.423,0,0,0-3.248,0,4.136,4.136,0,0,0-2.262,2.182A4,4,0,0,0,310.814,291.856Z" transform="translate(-138.691)" fill="#0c2169"/>
    <path id="Path_242" data-name="Path 242" d="M361.419,299.874h-4.862L352.83,294.1v5.778h-3.905V284.85H355a5.975,5.975,0,0,1,2.192.369,4.125,4.125,0,0,1,2.46,2.481,5.146,5.146,0,0,1,.309,1.793,4.41,4.41,0,0,1-.826,2.78,4.164,4.164,0,0,1-2.441,1.445Zm-8.588-8.309h.737a2.847,2.847,0,0,0,1.773-.478,1.839,1.839,0,0,0,0-2.75,2.848,2.848,0,0,0-1.773-.478h-.737Z" transform="translate(-161.779 -0.506)" fill="#0c2169"/>
    <path id="Path_243" data-name="Path 243" d="M378.625,299.874l2.55-15.024h3.866l3.009,8.01,2.988-8.01H394.9l2.551,15.024h-3.885l-1.3-8.648-3.547,8.648h-1.554l-3.368-8.648-1.3,8.648Z" transform="translate(-178.029 -0.506)" fill="#0c2169"/>
    <path id="Path_244" data-name="Path 244" d="M433.132,297.264h-5.579l-.9,2.61h-4.164l5.719-15.024h4.264l5.719,15.024h-4.164Zm-1.036-2.969-1.753-5-1.753,5Z" transform="translate(-202.031 -0.506)" fill="#0c2169"/>
    <path id="Path_245" data-name="Path 245" d="M460.947,299.874V284.85h3.905l7.214,9.186V284.85h3.885v15.024h-3.885l-7.214-9.186v9.186Z" transform="translate(-223.071 -0.506)" fill="#0c2169"/>
    <path id="Path_246" data-name="Path 246" d="M511.473,289.366a4.168,4.168,0,0,0-3.347-1.654,4.1,4.1,0,0,0-1.624.319,3.89,3.89,0,0,0-2.132,2.172,4.283,4.283,0,0,0-.309,1.634,4.334,4.334,0,0,0,.309,1.654,3.985,3.985,0,0,0,2.142,2.192,3.974,3.974,0,0,0,1.594.319,4.522,4.522,0,0,0,3.367-1.594v4.623l-.4.139a11.554,11.554,0,0,1-1.674.468,8.107,8.107,0,0,1-1.534.149,7.843,7.843,0,0,1-5.49-2.242,8.231,8.231,0,0,1-1.743-2.531,8.119,8.119,0,0,1-.01-6.376,7.935,7.935,0,0,1,7.263-4.712,8.228,8.228,0,0,1,1.763.189,10.738,10.738,0,0,1,1.823.588Z" transform="translate(-244.426)" fill="#0c2169"/>
    <path id="Path_247" data-name="Path 247" d="M539.366,288.158h-4.643v2.511h4.384v3.308h-4.384v2.59h4.643v3.308h-8.548V284.85h8.548Z" transform="translate(-261.301 -0.506)" fill="#0c2169"/>
  </g>
</svg>
