<svg id="layer1" xmlns="http://www.w3.org/2000/svg" width="78.338" height="50.567" viewBox="0 0 78.338 50.567">
  <g id="g4020" transform="translate(0 0)">
    <g id="g3980" transform="translate(0 23.439)">
      <path id="path3982" d="M-167.516,151.612a6.75,6.75,0,0,0-.417,2.377c0,2.7,3.018,6.519,8.989,6.519,6.614,0,8.123-4.367,8.123-6.616s-1.028-4.593-4.848-6.325c-3.154-1.789-5.2-2.667-5.2-4.529,0,0-.772.771.77,2.249,1.541,1.7,6,3.18,6,7.064s-5.715,3.855-5.94,3.855-5.746.192-7.481-4.593" transform="translate(167.933 -143.037)" fill="#0c2169" fill-rule="evenodd"/>
    </g>
    <g id="g3984" transform="translate(0.932 18.397)">
      <path id="path3986" d="M-146.164,82.34c-.1-.482-.225-.93-.257-1.155s.225-.546.579.1.834.707,1.251.482A1.516,1.516,0,0,1-146.164,82.34Zm3.724,2.312c-.771-1.444-2.44-1.99-1.927-3.659.386-2.024-2.7-3.47-5.17-3.47s-6.291,1.8-6.291,5.621c0,2.615,1.478,3.9,3.067,5.115,1.632,1.241,3.381,2.375,3.771,3.009a2.26,2.26,0,0,1,.642,1.446,2.01,2.01,0,0,1-1.123,1.766s5.008.417,5.008-2.987c0-2.762-3.018-4.11-4.11-5.009-1.22-1.061-2.375-1.9-2.375-3.373a1.928,1.928,0,0,1,2.054-1.863c1.444,0,3.041,1.286,4.354,2.424.82.709,1.724,1.44,1.81,1.527.225.224.579.064.29-.547" transform="translate(155.828 -77.523)" fill="#0c2169" fill-rule="evenodd"/>
    </g>
    <g id="g3988" transform="translate(15.282 20.035)">
      <path id="path3990" d="M61.478,111.058l2.761-8.115,2.8,8.115ZM87.4,98.8v11.658L80.43,98.8H74.779V118.23a3.326,3.326,0,0,1-1.091-1.573C73.464,115.854,67.3,98.8,67.3,98.8H52.981l-4.464,12.365s-1.316-7.932-1.573-10.149a2.092,2.092,0,0,1,1.67-2.216H41.391l-3.146,12.525S36,102.494,35.708,100.857a2.2,2.2,0,0,1,1.7-2.056H30.635l5.073,19.846h4.88l3.371-13.07,2.055,13.039h4.365s6.037-16.122,6.422-17.279,1.054-2.44,2.054-2.44c.67,0,2.123.545,1.123,3.213-.192.577-5.906,16.507-5.906,16.507h7.351c-.834,0-1.54-1.06-1.54-1.992a5.894,5.894,0,0,1,.32-1.8h8.123l1.316,3.821h11.3c-.739,0-1.574-1.221-1.574-1.766s.064-10.662.064-10.662l7.353,12.427h5.329v-17.18A2.772,2.772,0,0,1,93.691,98.8H87.4" transform="translate(-30.635 -98.801)" fill="#0c2169" fill-rule="evenodd"/>
    </g>
    <g id="g3992" transform="translate(0.193 0.236)">
      <path id="path3994" d="M-165.424-156.952l.684-1.5,10.161.032-.554,1.173-10.292.293" transform="translate(165.424 158.45)" fill="#0c2169" fill-rule="evenodd"/>
    </g>
    <g id="g3996" transform="translate(11.507 0.219)">
      <path id="path3998" d="M-18.417-157.423l.591-1.247h1.945l-.55,1.259-1.986-.012" transform="translate(18.417 158.67)" fill="#0c2169" fill-rule="evenodd"/>
    </g>
    <g id="g4000" transform="translate(14.45 0.18)">
      <path id="path4002" d="M19.824-157.912l.6-1.26,49.736.035-.682,1.261-49.655-.036" transform="translate(-19.824 159.172)" fill="#0c2169" fill-rule="evenodd"/>
    </g>
    <g id="g4004" transform="translate(68.168)">
      <path id="path4006" d="M717.8-160.045l.467-1.169s2.036-.3,2.5-.3,7.012,1,7.012,1-7.245.9-7.545.9-2.438-.434-2.438-.434" transform="translate(-717.796 161.514)" fill="#0c2169" fill-rule="evenodd"/>
    </g>
    <g id="g4008" transform="translate(65.13 0.219)">
      <path id="path4010" d="M678.322-157.423l.574-1.247h2.022l-.584,1.247h-2.012" transform="translate(-678.322 158.67)" fill="#0c2169" fill-rule="evenodd"/>
    </g>
    <path id="path4012" d="M-154.508,404.788H-78.87v-3.63h-75.638v3.63Z" transform="translate(155.541 -357.853)" fill="#0c2169"/>
    <path id="path4014" d="M-154.508,469.177H-78.87v-2.2h-75.638Z" transform="translate(155.541 -418.61)" fill="#0c2169"/>
    <g id="g4016" transform="translate(0.976 3.114)">
      <path id="path4018" d="M-90.965-119.33v-.611h.354c.2,0,.434.041.434.292,0,.287-.2.319-.438.319Zm1.184-.287c0-.449-.276-.627-.789-.627h-.793v2.137h.4v-.919h.239l.554.919h.407l-.575-.935A.533.533,0,0,0-89.781-119.617Zm-.856,1.969a1.447,1.447,0,0,1-1.425-1.52,1.447,1.447,0,0,1,1.425-1.52,1.448,1.448,0,0,1,1.426,1.52A1.447,1.447,0,0,1-90.637-117.648Zm0-3.406a1.888,1.888,0,0,0-1.886,1.886,1.888,1.888,0,0,0,1.886,1.886,1.888,1.888,0,0,0,1.885-1.886A1.888,1.888,0,0,0-90.637-121.054Zm9.373,6.8c-.428-.154-3.247-.686-3.247-.686-1.692-.367-1.632-1.174-1.632-1.174.046-1.311,1.921-1.4,1.921-1.4,2.987-.034,3.614.7,3.614.7l.655-2.394a21.2,21.2,0,0,0-3.7-.32c-4.344-.046-5.168,2.409-5.168,2.409a2.932,2.932,0,0,0,.518,3.217c1.22,1.19,4.436,1.433,4.436,1.433,2.043.26,1.89,1.327,1.89,1.327-.076,1.51-2.5,1.251-2.5,1.251a8.355,8.355,0,0,1-4.665-1.541v2.668c2.653,1.3,6.609.694,6.967.595,3.43-.944,3.2-3.2,3.2-3.2a2.579,2.579,0,0,0-2.287-2.882Zm-15.016-.32h-2.882l-.016-2.577h3.156a1.3,1.3,0,0,1,1.113,1.281S-94.786-114.726-96.28-114.573Zm4.1,5.428-2.3-3.873A2.849,2.849,0,0,0-92-115.9c.045-3.324-3.918-3.218-3.918-3.218h-5.855v11.04h3.613a1.4,1.4,0,0,1-.9-.808v-3.736H-97.3l2.76,4.543h3.811A2.539,2.539,0,0,1-92.179-109.145Zm-16.144-1.006s-2.851.306-2.927-3.507c0,0-.123-3.417,2.881-3.447,0,0,2.851-.214,2.866,3.476C-105.5-113.628-105.275-110.136-108.324-110.151Zm-.106-9.332c-5.762.213-5.672,5.733-5.672,5.733a5.6,5.6,0,0,0,5.794,5.992,5.441,5.441,0,0,0,5.61-5.763c0-6.252-5.732-5.962-5.732-5.962Zm-5.946,2.608a4.5,4.5,0,0,1,1.845-2.226h-10.778l.03,2.2h3.171v8.8h3.613a1.415,1.415,0,0,1-.884-.915l.03-7.853Zm-12.47-2.211v7.182A1.8,1.8,0,0,1-128.858-110c-2.226-.061-2.089-1.89-2.089-1.89V-119.1h-3.567c.823.245.9,1.356.9,1.356v6.878c.518,3.538,4.757,3.111,4.757,3.111,4.818.015,4.68-3.279,4.68-3.279l.03-8.051Zm-14.193,6.77,1.494-4.483,1.555,4.483Zm6.845,3.34-3.613-10.125h-4.939a1.353,1.353,0,0,1,.93,1.54l-3.339,9.469h4.04a1.484,1.484,0,0,1-.64-2.119h4.467l.732,2.119h3.232c-.549-.152-.869-.884-.869-.884Zm-10.523-10.11h-3.51v6.4l-3.8-6.449h-3.224v11.024h3.43a1.243,1.243,0,0,1-.766-.732l-.011-6.039,3.99,6.794h3.007v-9.332a1.736,1.736,0,0,1,.881-1.669" transform="translate(155.247 121.054)" fill="#0c2169"/>
    </g>
  </g>
</svg>
