<svg id="Group_249" data-name="Group 249" xmlns="http://www.w3.org/2000/svg" width="145.59" height="34.706" viewBox="0 0 145.59 34.706">
  <path id="Path_183" data-name="Path 183" d="M38.673-136.517A17.352,17.352,0,0,0,21.32-119.164a17.352,17.352,0,0,0,17.353,17.353,17.353,17.353,0,0,0,17.354-17.353A17.353,17.353,0,0,0,38.673-136.517Zm-7.165,23.45-5.849-13.288a.811.811,0,0,1,.8-1.229l10.875.005c.737,0,.937.46.661,1.144l-.69,1.667a1.225,1.225,0,0,1-1.343.921H32.068c-.74,0-1.008.443-.711,1.12l2.31,5.238c.3.677.244.876-.072,1.667l-1.117,2.712C32.237-112.547,31.807-112.39,31.508-113.067Zm5.676,5.032a2.123,2.123,0,0,1-1.862,1.1,2.126,2.126,0,0,1-2.126-2.126,2.1,2.1,0,0,1,.123-.707c0-.008,6.958-16.9,6.958-16.9a1.268,1.268,0,0,1,1.365-.926l2.284,0a.847.847,0,0,1,.8,1.28S37.261-108.176,37.184-108.036Zm6.608,0a2.124,2.124,0,0,1-1.862,1.1,2.126,2.126,0,0,1-2.126-2.126,2.123,2.123,0,0,1,.123-.707c0-.008,6.959-16.9,6.959-16.9a1.268,1.268,0,0,1,1.365-.926l2.284,0a.847.847,0,0,1,.8,1.28S43.869-108.176,43.792-108.036Z" transform="translate(-21.32 136.517)" fill="#0c2169"/>
  <path id="path86" d="M83.053-107.619a.463.463,0,0,1-.462-.462v-12.655a.464.464,0,0,0-.462-.463H76.322a.439.439,0,0,1-.408-.462v-1.956a.464.464,0,0,1,.462-.463H95a.463.463,0,0,1,.462.463v1.956A.464.464,0,0,1,95-121.2H89.244a.464.464,0,0,0-.463.463v12.655a.463.463,0,0,1-.462.462Z" transform="translate(-33.809 133.672)" fill="#0c2169"/>
  <path id="path88" d="M106.371-107.612H105.5a.438.438,0,0,1-.408-.462v-15.512a.464.464,0,0,1,.463-.463h5.266a.464.464,0,0,1,.463.463v15.512a.463.463,0,0,1-.463.462Z" transform="translate(-40.484 133.665)" fill="#0c2169"/>
  <path id="path90" d="M188.1-112.446v-11.295a.3.3,0,0,1,.3-.3h5.265a.3.3,0,0,1,.3.3l-.008,10.877a2.4,2.4,0,0,0,2.441,2.546c4.679,0,6.745.02,8.277.02a.346.346,0,0,1,.385.417c0,.1,0,2,0,2a.3.3,0,0,1-.3.3H194.2c-1.789,0-6.1-.484-6.1-4.863" transform="translate(-59.472 133.663)" fill="#0c2169"/>
  <path id="path92" d="M144.752-124.077h-4.941a.439.439,0,0,0-.462.407v10.9c0,.99-.156,2.443-2.359,2.445l-2.447-.026a.463.463,0,0,1-.462-.461l-.022-12.722A.464.464,0,0,0,133.6-124h-4.836a.463.463,0,0,0-.462.463v12.757a.465.465,0,0,1-.463.463l-3.789.006a.463.463,0,0,1-.462-.461v-12.84a.464.464,0,0,0-.463-.462h-4.939a.464.464,0,0,0-.463.462v15.557a.464.464,0,0,0,.463.462h20.933l.081-.025-.03.025c4.213,0,6.046-1.191,6.046-4.587v-11.431a.463.463,0,0,0-.462-.464" transform="translate(-43.373 133.671)" fill="#0c2169"/>
  <path id="path94" d="M177.611-124.047H163.677c-5.018,0-6.192,2.531-6.192,3.892v12.084a.463.463,0,0,0,.462.462h5.23a.463.463,0,0,0,.463-.462v-6.178a.463.463,0,0,1,.462-.462h7.356a.463.463,0,0,1,.462.462v6.178a.463.463,0,0,0,.463.462h5.229a.463.463,0,0,0,.462-.462v-15.513a.465.465,0,0,0-.463-.463m-5.661,6.482a.463.463,0,0,1-.462.462h-7.355a.463.463,0,0,1-.462-.462v-1.112c0-1.48,1.032-1.471,2.353-1.471h5.463a.463.463,0,0,1,.462.462v2.121Z" transform="translate(-52.469 133.664)" fill="#0c2169"/>
</svg>
