<svg id="Group_247" data-name="Group 247" xmlns="http://www.w3.org/2000/svg" width="86.946" height="42.032" viewBox="0 0 86.946 42.032">
  <path id="Path_31" data-name="Path 31" d="M17.874,30.878c.553.218,1.1.446,1.661.653.677.251,1.36.484,2.115.752-.171.117-.289.2-.41.281a8.913,8.913,0,0,0-3.308,3.618,6.578,6.578,0,0,0-.118,5.478c.081.2.174.393.272.583s.221.215.4.079c1.019-.79,2.035-1.583,3.065-2.359Q23.765,38.293,26,36.65c.618-.456,1.245-.9,1.875-1.338q2.622-1.82,5.251-3.627a3.6,3.6,0,0,1,1.75-.591A3.874,3.874,0,0,1,38.5,32.905c.164.223.331.443.522.7a194.337,194.337,0,0,0-18,12.088c.212.177.373.335.556.46A20.85,20.85,0,0,0,25.854,48.5c.647.247,1.26.585,1.913.81,1.291.444,2.593.862,3.9,1.242.811.236,1.648.383,2.473.571.8.181,1.587.383,2.387.537.834.161,1.677.281,2.517.41.983.15,1.965.3,2.951.429.6.077,1.2.1,1.8.158,1,.09,1.991.184,2.986.276.061.006.121.012.182.015.8.025,1.6.042,2.4.076.652.028,1.3.106,1.954.112,2.295.021,4.59.036,6.885.021,1.018-.007,2.035-.089,3.053-.136,1.055-.049,2.11-.081,3.164-.151,1.177-.078,2.354-.169,3.527-.294,1.36-.145,2.719-.307,4.073-.508,1.632-.242,3.261-.507,4.883-.81a25.716,25.716,0,0,0,2.888-.7,31.527,31.527,0,0,0,3.042-1.131,5.05,5.05,0,0,0,1.322-.859c.926-.816.612-1.647-.19-2.318a10.733,10.733,0,0,0-3.078-1.5c-.752-.3-1.481-.659-2.229-.97-1.115-.465-2.256-.867-3.35-1.375A22.676,22.676,0,0,1,70.581,40a5.983,5.983,0,0,1-1.934-2.329,2.151,2.151,0,0,1,.414-2.35,7.5,7.5,0,0,1,3.021-2.032c1.294-.483,2.59-.976,3.917-1.352a24.162,24.162,0,0,1,3.2-.609c1.189-.168,2.389-.257,3.584-.384.041,0,.078-.042.117-.065h1.024c.477.707.951,1.415,1.43,2.121.448.66.9,1.317,1.359,1.986-.045.024-.073.053-.1.054-.776.028-1.554.015-2.326.087-1.136.106-2.267.263-3.4.417a15.309,15.309,0,0,0-1.764.313,9.2,9.2,0,0,0-2.91,1.072c-.734.489-.79,1.128-.059,1.607A16.817,16.817,0,0,0,78.4,39.751c1.088.5,2.209.921,3.315,1.381,1.8.748,3.608,1.474,5.39,2.261A12.984,12.984,0,0,1,89.5,44.7a7.254,7.254,0,0,1,1.8,1.781,2.981,2.981,0,0,1-.367,4.107A10.337,10.337,0,0,1,87.6,52.73a28.185,28.185,0,0,1-4.778,1.6c-1.24.3-2.491.562-3.743.809-1.209.239-2.423.46-3.641.649-.865.135-1.74.2-2.611.3-.836.1-1.671.2-2.507.286-.593.062-1.188.107-1.782.151-1.347.1-2.693.2-4.04.289-.6.04-1.211.061-1.817.076-1.239.031-2.478.058-3.718.074-2.328.03-4.656.071-6.984.066-1.322,0-2.645-.083-3.967-.141-.821-.036-1.642-.077-2.461-.148-1.174-.1-2.345-.232-3.516-.353-.946-.1-1.894-.183-2.836-.306s-1.877-.271-2.811-.432c-1.2-.206-2.406-.407-3.6-.663q-2.047-.441-4.073-.977a40.264,40.264,0,0,1-7.523-2.749c-1.234-.608-2.426-1.3-3.638-1.955a.539.539,0,0,1-.094-.049c-.438-.375-.441-.379-.885-.018-.96.784-1.926,1.562-2.872,2.363-1.124.951-2.232,1.922-3.342,2.889-.8.7-1.6,1.405-2.4,2.107-.044.039-.1.069-.184.133l-.919-1.013L5,53.68v-.073q.731-.639,1.463-1.278,1.676-1.46,3.355-2.917c.557-.483,1.112-.969,1.674-1.447.353-.3.719-.585,1.078-.878.29-.236.585-.467.869-.709a.39.39,0,0,0,.041-.623q-.323-.378-.619-.78a10.63,10.63,0,0,1-1.694-3.436,8.445,8.445,0,0,1-.251-3.473,7.874,7.874,0,0,1,1.237-3.288,8.128,8.128,0,0,1,1.875-2.032,16.805,16.805,0,0,1,2.151-1.279c.425-.231.886-.4,1.331-.591Z" transform="translate(-5 -30.833)" fill="#0c2169"/>
  <path id="Path_32" data-name="Path 32" d="M93.061,31.21a.649.649,0,0,1,.371.227c.451.711.882,1.434,1.315,2.156q.59.985,1.17,1.976c.048.082.08.174.139.3-.4-.057-.762-.115-1.13-.161-.737-.094-1.472-.219-2.211-.263a28.934,28.934,0,0,0-3.056-.067c-1.283.06-2.564.2-3.84.353a19.15,19.15,0,0,0-5.133,1.387,13.762,13.762,0,0,0-4.076,2.534,8.1,8.1,0,0,0-1.871,2.569,6.8,6.8,0,0,0-.477,3.894,7.666,7.666,0,0,0,1.62,3.771c.1.128.224.242.336.363l-.068.159a17.536,17.536,0,0,1-1.782-.242,6.436,6.436,0,0,1-3.282-1.87,6.9,6.9,0,0,1-1.713-3.384,8.164,8.164,0,0,1,.162-3.89,10.5,10.5,0,0,1,2.641-4.418,14.24,14.24,0,0,1,2.6-2.122,19.63,19.63,0,0,1,3.647-1.83,25.416,25.416,0,0,1,4.422-1.278c.716-.139,1.443-.221,2.165-.322.563-.079,1.128-.147,1.692-.22C90.959,30.673,92.142,30.989,93.061,31.21Z" transform="translate(-35.94 -30.791)" fill="#0c2169"/>
  <path id="Path_33" data-name="Path 33" d="M42.5,100.026l-3.151,1.7a1.35,1.35,0,0,1-.24-.29c-.276-.659-.768-.584-1.344-.484-1.086.189-2.182.344-3.28.433a24.435,24.435,0,0,1-3.061.069,5.377,5.377,0,0,1-2.8-.681,1.457,1.457,0,0,1-.627-1.7,4.539,4.539,0,0,1,1.492-2.124c.856-.742,1.751-1.439,2.635-2.148.91-.731,1.827-1.452,2.741-2.179a6.2,6.2,0,0,0,.863-.712,1.369,1.369,0,0,1,1.019-.376c.993-.108,1.989-.2,2.984-.291.662-.06,1.326-.1,1.989-.152,1.155-.093,2.311-.192,3.466-.285a5.334,5.334,0,0,1,.727-.025.281.281,0,0,1,.189.191,9.326,9.326,0,0,1,.069,1.082c0,.069-.142.192-.226.2-1.022.086-2.047.141-3.069.233-1.175.1-2.347.24-3.521.356-.361.036-.723.073-1.084.074a2.362,2.362,0,0,0-1.4.734c-.877.658-1.738,1.338-2.6,2.014-.294.23-.578.474-.877.72.947-.109,1.87-.211,2.792-.323.74-.089,1.479-.194,2.22-.28.273-.032.5-.083.574.362.148.933.195.947-.7,1.078-.726.106-1.462.146-2.191.232-.882.105-1.763.229-2.644.343-.632.081-1.264.16-1.9.239-.012,0-.024,0-.036,0-.508.054-.689.494-.851.851a1.085,1.085,0,0,0,.011.938,1.524,1.524,0,0,0,.963.387,13.675,13.675,0,0,0,2.217.076c1.153-.072,2.3-.22,3.45-.351a20.311,20.311,0,0,0,4.416-1.1,2.122,2.122,0,0,0,.218-.1,2.924,2.924,0,0,1,1.523-3.05c.187-.107.382-.2.578-.29a.559.559,0,0,1,.76.231.233.233,0,0,1-.025.207,2.964,2.964,0,0,0-.648,1.795l2.419-1.372a11.574,11.574,0,0,1,3.082-1.336c.276-.063.48-.049.576.288s.254.666.4,1.033c-2.282.494-4.193,1.775-6.255,2.788a2.076,2.076,0,0,0,1.452,1.047,6.6,6.6,0,0,0,2.652.165c.792-.121,1.595-.176,2.411-.261a3.007,3.007,0,0,1,1.188-2.4,10.346,10.346,0,0,1,3.265-1.766,28.038,28.038,0,0,1,4.241-1.06c.262-.051.337.123.388.322.089.346.175.693.272,1.082-.441.09-.893.173-1.341.275A15.564,15.564,0,0,0,55.1,97.679a3.817,3.817,0,0,0-1.436,1.116.978.978,0,0,0-.238.956c.151.379.5.439.854.482a15.834,15.834,0,0,0,4.521-.349c.107-.018.216-.023.323-.037A1.289,1.289,0,0,0,60.3,99a5.772,5.772,0,0,1,2.231-2.267,11.208,11.208,0,0,1,4.355-1.878,6.264,6.264,0,0,1,1.975-.008,1.322,1.322,0,0,1,1.155,1.058,1.489,1.489,0,0,1-.768,1.46,14.007,14.007,0,0,1-4.877,2.208,11.8,11.8,0,0,0-1.582.565,10.75,10.75,0,0,0,1.272.154,20.047,20.047,0,0,0,5.37-.767,1.586,1.586,0,0,1,.928.065,17.256,17.256,0,0,0,3.706.655,9.439,9.439,0,0,0,2.522-.1c.221-.043.6-.073.622-.332.016-.184-.335-.341-.538-.412-1-.352-2.024-.645-3.021-1.01a9.023,9.023,0,0,1-1.476-.737c-.883-.525-.713-1.276.034-1.8A5.788,5.788,0,0,1,74.3,95.04a14.882,14.882,0,0,1,4.222-.279,13.922,13.922,0,0,1,2.009.27c-.044.517-.093.948-.136,1.451-.355-.033-.7-.07-1.05-.105a12.062,12.062,0,0,0-4.563.2,2.169,2.169,0,0,0-.583.27c-.164.107-.239.279.013.381.627.253,1.255.5,1.892.731a12.08,12.08,0,0,1,3.2,1.312.713.713,0,0,1,.123.106c.3.589.707.228,1.124.134a1.156,1.156,0,0,1,.581.015,15.875,15.875,0,0,0,3.512.72,9.9,9.9,0,0,0,2.415-.091.377.377,0,0,0,.141-.026c.191-.043.46-.153.475-.328,0-.145-.279-.3-.45-.36-1.049-.361-2.117-.669-3.159-1.048a8.734,8.734,0,0,1-1.539-.763c-.811-.493-.711-1.214.053-1.754a5.9,5.9,0,0,1,2.161-.833,16.822,16.822,0,0,1,4.369-.283,18.354,18.354,0,0,1,1.941.27L90.94,96.5c-.341-.025-.672-.038-1-.076a12.27,12.27,0,0,0-3.36-.063c-.586.093-1.168.223-1.744.366-.217.025-.38.148-.388.289-.012.219.222.3.369.354.636.242,1.288.444,1.931.67a11.372,11.372,0,0,1,2.985,1.217c.581.413.611,1.056-.018,1.394a5.188,5.188,0,0,1-1.732.631,15.588,15.588,0,0,1-3.327.156,18.189,18.189,0,0,1-3.28-.736,2.371,2.371,0,0,0-1.246,0c-1.131.256-2.263.531-3.41.69a13.88,13.88,0,0,1-5.826-.524.752.752,0,0,1-.136-.047,3.636,3.636,0,0,0-2.526.086c-.987.189-1.977.372-2.974.485a15.327,15.327,0,0,1-2.288.075,4.317,4.317,0,0,1-2.655-.734.328.328,0,0,0-.227-.01c-1.007.2-2.006.475-3.022.585a29.781,29.781,0,0,1-3.63.149,3.448,3.448,0,0,1-2.043-.578.321.321,0,0,0-.225,0,15.054,15.054,0,0,1-2.052.474,28.224,28.224,0,0,1-3.113.062,5.209,5.209,0,0,1-2.436-.667C43.2,100.536,42.87,100.277,42.5,100.026ZM62.315,99.1c-.1.1-.061.223.1.168,1.453-.528,2.915-1.037,4.357-1.6a4.485,4.485,0,0,0,1.888-1.229.4.4,0,0,0,.106-.311c-.024-.071-.191-.14-.287-.131a6.618,6.618,0,0,0-1.205.172,12.51,12.51,0,0,0-3.689,1.812A14.194,14.194,0,0,0,62.315,99.1Z" transform="translate(-16.048 -59.697)" fill="#0c2169"/>
</svg>
